<svg xmlns="http://www.w3.org/2000/svg" viewBox="0 0 240 240" width="512" height="512"><metadata><rdf:RDF xmlns:rdf="http://www.w3.org/1999/02/22-rdf-syntax-ns#" xmlns:dc="http://purl.org/dc/elements/1.1/"><rdf:Description><dc:creator>RealFaviconGenerator</dc:creator><dc:source>https://realfavicongenerator.net</dc:source></rdf:Description></rdf:RDF></metadata><defs>
    <!-- The signature neon glow effect -->
    <filter id="neonGlow" x="-20%" y="-20%" width="140%" height="140%">
      <feGaussianBlur stdDeviation="3" result="blur"></feGaussianBlur>
      <feMerge>
        <feMergeNode in="blur"></feMergeNode>
        <feMergeNode in="SourceGraphic"></feMergeNode>
      </feMerge>
    </filter>
  </defs><g style="transform-origin: 120px 120px;">
    
    <!-- Node 1 (0 degrees) -->
    <g transform="translate(120, 120) rotate(0)">
      <path d="M -22 -75 C -45 -75 -40 -50 0 -50" fill="none" stroke="#3B82F6" stroke-width="4" stroke-linecap="round"></path>
      <path d="M 22 -75 C 45 -75 40 -50 0 -50" fill="none" stroke="#3B82F6" stroke-width="4" stroke-linecap="round"></path>
      <path d="M -10 -63 L 10 -63 L 6 -48 L -6 -48 Z" fill="#00F2FF"></path>
      <rect x="-22" y="-90" width="44" height="26" rx="6" fill="#0B0E14" stroke="#2E5BFF" stroke-width="4" filter="url(#neonGlow)"></rect>
      <rect x="-16" y="-84" width="32" height="14" rx="2" fill="#2E5BFF" opacity="0.15"></rect>
    </g>

    <!-- Node 2 (45 degrees) -->
    <g transform="translate(120, 120) rotate(45)">
      <path d="M -22 -75 C -45 -75 -40 -50 0 -50" fill="none" stroke="#3B82F6" stroke-width="4" stroke-linecap="round"></path>
      <path d="M 22 -75 C 45 -75 40 -50 0 -50" fill="none" stroke="#3B82F6" stroke-width="4" stroke-linecap="round"></path>
      <path d="M -10 -63 L 10 -63 L 6 -48 L -6 -48 Z" fill="#00F2FF"></path>
      <rect x="-22" y="-90" width="44" height="26" rx="6" fill="#0B0E14" stroke="#2E5BFF" stroke-width="4" filter="url(#neonGlow)"></rect>
      <rect x="-16" y="-84" width="32" height="14" rx="2" fill="#2E5BFF" opacity="0.15"></rect>
    </g>

    <!-- Node 3 (90 degrees) -->
    <g transform="translate(120, 120) rotate(90)">
      <path d="M -22 -75 C -45 -75 -40 -50 0 -50" fill="none" stroke="#3B82F6" stroke-width="4" stroke-linecap="round"></path>
      <path d="M 22 -75 C 45 -75 40 -50 0 -50" fill="none" stroke="#3B82F6" stroke-width="4" stroke-linecap="round"></path>
      <path d="M -10 -63 L 10 -63 L 6 -48 L -6 -48 Z" fill="#00F2FF"></path>
      <rect x="-22" y="-90" width="44" height="26" rx="6" fill="#0B0E14" stroke="#2E5BFF" stroke-width="4" filter="url(#neonGlow)"></rect>
      <rect x="-16" y="-84" width="32" height="14" rx="2" fill="#2E5BFF" opacity="0.15"></rect>
    </g>

    <!-- Node 4 (135 degrees) -->
    <g transform="translate(120, 120) rotate(135)">
      <path d="M -22 -75 C -45 -75 -40 -50 0 -50" fill="none" stroke="#3B82F6" stroke-width="4" stroke-linecap="round"></path>
      <path d="M 22 -75 C 45 -75 40 -50 0 -50" fill="none" stroke="#3B82F6" stroke-width="4" stroke-linecap="round"></path>
      <path d="M -10 -63 L 10 -63 L 6 -48 L -6 -48 Z" fill="#00F2FF"></path>
      <rect x="-22" y="-90" width="44" height="26" rx="6" fill="#0B0E14" stroke="#2E5BFF" stroke-width="4" filter="url(#neonGlow)"></rect>
      <rect x="-16" y="-84" width="32" height="14" rx="2" fill="#2E5BFF" opacity="0.15"></rect>
    </g>

    <!-- Node 5 (180 degrees) -->
    <g transform="translate(120, 120) rotate(180)">
      <path d="M -22 -75 C -45 -75 -40 -50 0 -50" fill="none" stroke="#3B82F6" stroke-width="4" stroke-linecap="round"></path>
      <path d="M 22 -75 C 45 -75 40 -50 0 -50" fill="none" stroke="#3B82F6" stroke-width="4" stroke-linecap="round"></path>
      <path d="M -10 -63 L 10 -63 L 6 -48 L -6 -48 Z" fill="#00F2FF"></path>
      <rect x="-22" y="-90" width="44" height="26" rx="6" fill="#0B0E14" stroke="#2E5BFF" stroke-width="4" filter="url(#neonGlow)"></rect>
      <rect x="-16" y="-84" width="32" height="14" rx="2" fill="#2E5BFF" opacity="0.15"></rect>
    </g>

    <!-- Node 6 (225 degrees) -->
    <g transform="translate(120, 120) rotate(225)">
      <path d="M -22 -75 C -45 -75 -40 -50 0 -50" fill="none" stroke="#3B82F6" stroke-width="4" stroke-linecap="round"></path>
      <path d="M 22 -75 C 45 -75 40 -50 0 -50" fill="none" stroke="#3B82F6" stroke-width="4" stroke-linecap="round"></path>
      <path d="M -10 -63 L 10 -63 L 6 -48 L -6 -48 Z" fill="#00F2FF"></path>
      <rect x="-22" y="-90" width="44" height="26" rx="6" fill="#0B0E14" stroke="#2E5BFF" stroke-width="4" filter="url(#neonGlow)"></rect>
      <rect x="-16" y="-84" width="32" height="14" rx="2" fill="#2E5BFF" opacity="0.15"></rect>
    </g>

    <!-- Node 7 (270 degrees) -->
    <g transform="translate(120, 120) rotate(270)">
      <path d="M -22 -75 C -45 -75 -40 -50 0 -50" fill="none" stroke="#3B82F6" stroke-width="4" stroke-linecap="round"></path>
      <path d="M 22 -75 C 45 -75 40 -50 0 -50" fill="none" stroke="#3B82F6" stroke-width="4" stroke-linecap="round"></path>
      <path d="M -10 -63 L 10 -63 L 6 -48 L -6 -48 Z" fill="#00F2FF"></path>
      <rect x="-22" y="-90" width="44" height="26" rx="6" fill="#0B0E14" stroke="#2E5BFF" stroke-width="4" filter="url(#neonGlow)"></rect>
      <rect x="-16" y="-84" width="32" height="14" rx="2" fill="#2E5BFF" opacity="0.15"></rect>
    </g>

    <!-- Node 8 (315 degrees) -->
    <g transform="translate(120, 120) rotate(315)">
      <path d="M -22 -75 C -45 -75 -40 -50 0 -50" fill="none" stroke="#3B82F6" stroke-width="4" stroke-linecap="round"></path>
      <path d="M 22 -75 C 45 -75 40 -50 0 -50" fill="none" stroke="#3B82F6" stroke-width="4" stroke-linecap="round"></path>
      <path d="M -10 -63 L 10 -63 L 6 -48 L -6 -48 Z" fill="#00F2FF"></path>
      <rect x="-22" y="-90" width="44" height="26" rx="6" fill="#0B0E14" stroke="#2E5BFF" stroke-width="4" filter="url(#neonGlow)"></rect>
      <rect x="-16" y="-84" width="32" height="14" rx="2" fill="#2E5BFF" opacity="0.15"></rect>
    </g>

  </g><circle cx="120" cy="120" r="16" fill="#00F2FF" filter="url(#neonGlow)"></circle></svg>